<svg width="24" height="24" viewBox="0 0 24 24" fill="none" xmlns="http://www.w3.org/2000/svg">
<rect x="0.5" y="0.5" width="23" height="23" rx="11.5" fill="white"/>
<rect x="0.5" y="0.5" width="23" height="23" rx="11.5" stroke="#EEEEEE"/>
<g clip-path="url(#clip0_479_28482)">
<path d="M7.5 10C7.5 10.275 7.725 10.5 8 10.5C8.275 10.5 8.5 10.275 8.5 10V9H9.5C9.775 9 10 8.775 10 8.5C10 8.225 9.775 8 9.5 8H8.5V7C8.5 6.725 8.275 6.5 8 6.5C7.725 6.5 7.5 6.725 7.5 7V8H6.5C6.225 8 6 8.225 6 8.5C6 8.775 6.225 9 6.5 9H7.5V10Z" fill="#E0E0E0"/>
<path d="M12.5 14.5C13.3284 14.5 14 13.8284 14 13C14 12.1716 13.3284 11.5 12.5 11.5C11.6716 11.5 11 12.1716 11 13C11 13.8284 11.6716 14.5 12.5 14.5Z" fill="#E0E0E0"/>
<path d="M16.5 9H14.915L14.295 8.325C14.2016 8.22294 14.0881 8.14136 13.9616 8.08542C13.8351 8.02948 13.6983 8.00039 13.56 8H10.36C10.445 8.15 10.5 8.315 10.5 8.5C10.5 9.05 10.05 9.5 9.5 9.5H9V10C9 10.55 8.55 11 8 11C7.815 11 7.65 10.945 7.5 10.86V16C7.5 16.55 7.95 17 8.5 17H16.5C17.05 17 17.5 16.55 17.5 16V10C17.5 9.45 17.05 9 16.5 9ZM12.5 15.5C11.12 15.5 10 14.38 10 13C10 11.62 11.12 10.5 12.5 10.5C13.88 10.5 15 11.62 15 13C15 14.38 13.88 15.5 12.5 15.5Z" fill="#E0E0E0"/>
</g>
<defs>
<clipPath id="clip0_479_28482">
<rect width="12" height="12" fill="white" transform="translate(6 6)"/>
</clipPath>
</defs>
</svg>
