<svg width="54" height="54" viewBox="0 0 54 54" fill="none" xmlns="http://www.w3.org/2000/svg">
<path d="M26.5184 43.9511C6.27102 43.9518 3.56335 29.7014 8.43832 22.5767C5.73832 7.27666 15.1875 10.5769 19.6875 14.7019C21.9375 13.5769 24.1875 13.5761 26.5188 13.5761" stroke="#E0E0E0" stroke-width="2"/>
<path d="M26.3544 43.9511C46.6018 43.9518 49.3095 29.7014 44.4345 22.5767C47.1345 7.27666 37.6853 10.5769 33.1853 14.7019C30.9353 13.5769 28.6853 13.5761 26.354 13.5761" stroke="#E0E0E0" stroke-width="2"/>
<ellipse cx="18.675" cy="27" rx="1.8" ry="2.25" fill="#E0E0E0"/>
<ellipse cx="35.55" cy="27" rx="1.8" ry="2.25" fill="#E0E0E0"/>
<path d="M26.349 30.7751C26.6967 31.1623 27.3033 31.1623 27.651 30.7751L28.7202 29.5847C29.2261 29.0214 28.8263 28.125 28.0692 28.125H25.9308C25.1737 28.125 24.7739 29.0214 25.2798 29.5847L26.349 30.7751Z" fill="#E0E0E0"/>
<path d="M11.8125 31.5772C7.95536 31.5728 4.09821 32.7021 2.8125 33.8271" stroke="#E0E0E0" stroke-width="2" stroke-linecap="round"/>
<path d="M12.9375 36.0771C10.6875 36.0771 8.4375 37.2022 7.3125 38.3272" stroke="#E0E0E0" stroke-width="2" stroke-linecap="round"/>
<path d="M42.1875 31.5772C46.0446 31.5728 49.9018 32.7021 51.1875 33.8271" stroke="#E0E0E0" stroke-width="2" stroke-linecap="round"/>
<path d="M41.0625 36.0771C43.3125 36.0771 45.5625 37.2022 46.6875 38.3272" stroke="#E0E0E0" stroke-width="2" stroke-linecap="round"/>
</svg>
