<svg width="54" height="54" viewBox="0 0 54 54" fill="none" xmlns="http://www.w3.org/2000/svg">
<path d="M13.456 23.6308L14.4337 23.8409C14.5427 23.3338 14.2459 22.8275 13.7501 22.675C13.2543 22.5224 12.7243 22.7743 12.5293 23.255L13.456 23.6308ZM4.6023 24.7532L5.5835 24.9461L5.58872 24.9196L5.5925 24.8928L4.6023 24.7532ZM13.456 23.6308L12.5293 23.255C9.27166 31.2885 9.77436 37.0781 12.9134 40.8598C15.9974 44.5753 21.3547 46.001 27 46.001V45.001V44.001C21.5773 44.001 16.9697 42.6153 14.4523 39.5825C11.9899 36.6159 11.2547 31.7204 14.3827 24.0065L13.456 23.6308ZM11.4975 13.5032L12.2104 14.2045C13.6696 12.7213 16.2113 11.6499 19.0678 10.9584C21.8895 10.2753 24.855 10.001 26.9986 10.001V9.00098L26.9986 8.00098C24.7136 8.00097 21.5888 8.29029 18.5972 9.01452C15.6404 9.73034 12.6458 10.9101 10.7847 12.8019L11.4975 13.5032ZM11.4975 13.5032L10.7847 12.8019C9.08911 14.5253 7.44656 16.4812 6.15611 18.4883C4.87297 20.484 3.8971 22.593 3.6121 24.6135L4.6023 24.7532L5.5925 24.8928C5.82083 23.2741 6.63236 21.4456 7.83839 19.5699C9.03711 17.7055 10.5855 15.8561 12.2104 14.2045L11.4975 13.5032ZM4.6023 24.7532L3.6211 24.5602C3.29571 26.2147 3.64131 27.6707 4.48913 28.7318C5.32892 29.7828 6.59257 30.3578 7.93049 30.3857C10.6725 30.443 13.4797 28.2796 14.4337 23.8409L13.456 23.6308L12.4784 23.4206C11.6645 27.2076 9.49171 28.4179 7.97223 28.3862C7.17942 28.3696 6.49198 28.0345 6.05163 27.4834C5.61932 26.9423 5.35576 26.1042 5.5835 24.9461L4.6023 24.7532Z" fill="#E0E0E0"/>
<path d="M40.544 23.6308L39.5663 23.8409C39.4573 23.3338 39.7541 22.8275 40.2499 22.675C40.7457 22.5224 41.2757 22.7743 41.4707 23.255L40.544 23.6308ZM49.3977 24.7532L48.4165 24.9461L48.4113 24.9196L48.4075 24.8928L49.3977 24.7532ZM40.544 23.6308L41.4707 23.255C44.7283 31.2885 44.2256 37.0781 41.0866 40.8598C38.0026 44.5753 32.6453 46.001 27 46.001V45.001V44.001C32.4227 44.001 37.0303 42.6153 39.5477 39.5825C42.0101 36.6159 42.7453 31.7204 39.6173 24.0065L40.544 23.6308ZM42.5025 13.5032L41.7896 14.2045C40.3304 12.7213 37.7887 11.6499 34.9322 10.9584C32.1105 10.2753 29.145 10.001 27.0014 10.001V9.00098L27.0014 8.00098C29.2864 8.00097 32.4112 8.29029 35.4028 9.01452C38.3596 9.73034 41.3542 10.9101 43.2153 12.8019L42.5025 13.5032ZM42.5025 13.5032L43.2153 12.8019C44.9109 14.5253 46.5534 16.4812 47.8439 18.4883C49.127 20.484 50.1029 22.593 50.3879 24.6135L49.3977 24.7532L48.4075 24.8928C48.1792 23.2741 47.3676 21.4456 46.1616 19.5699C44.9629 17.7055 43.4145 15.8561 41.7896 14.2045L42.5025 13.5032ZM49.3977 24.7532L50.3789 24.5602C50.7043 26.2147 50.3587 27.6707 49.5109 28.7318C48.6711 29.7828 47.4074 30.3578 46.0695 30.3857C43.3275 30.443 40.5203 28.2796 39.5663 23.8409L40.544 23.6308L41.5216 23.4206C42.3355 27.2076 44.5083 28.4179 46.0278 28.3862C46.8206 28.3696 47.508 28.0345 47.9484 27.4834C48.3807 26.9423 48.6442 26.1042 48.4165 24.9461L49.3977 24.7532Z" fill="#E0E0E0"/>
<ellipse cx="21.2873" cy="25.877" rx="1.8" ry="2.25" fill="#E0E0E0"/>
<ellipse cx="32.5373" cy="25.877" rx="1.8" ry="2.25" fill="#E0E0E0"/>
<rect x="24.375" y="33.752" width="4.5" height="5.25" rx="2.25" transform="rotate(-90 24.375 33.752)" fill="#E0E0E0"/>
</svg>
