<svg width="24" height="24" viewBox="0 0 24 24" fill="none" xmlns="http://www.w3.org/2000/svg">
<path d="M21.8072 10.0415H21.0017V10H12.0017V14H17.6532C16.8287 16.3285 14.6132 18 12.0017 18C8.68821 18 6.00171 15.3135 6.00171 12C6.00171 8.6865 8.68821 6 12.0017 6C13.5312 6 14.9227 6.577 15.9822 7.5195L18.8107 4.691C17.0247 3.0265 14.6357 2 12.0017 2C6.47921 2 2.00171 6.4775 2.00171 12C2.00171 17.5225 6.47921 22 12.0017 22C17.5242 22 22.0017 17.5225 22.0017 12C22.0017 11.3295 21.9327 10.675 21.8072 10.0415Z" fill="#FFC107"/>
<path d="M3.15283 7.3455L6.43833 9.755C7.32733 7.554 9.48033 6 11.9998 6C13.5293 6 14.9208 6.577 15.9803 7.5195L18.8088 4.691C17.0228 3.0265 14.6338 2 11.9998 2C8.15883 2 4.82783 4.1685 3.15283 7.3455Z" fill="#FF3D00"/>
<path d="M12.0004 22.0003C14.5834 22.0003 16.9304 21.0118 18.7049 19.4043L15.6099 16.7853C14.5723 17.5749 13.3042 18.0017 12.0004 18.0003C9.3994 18.0003 7.1909 16.3418 6.3589 14.0273L3.0979 16.5398C4.7529 19.7783 8.1139 22.0003 12.0004 22.0003Z" fill="#4CAF50"/>
<path d="M21.8065 10.0415H21.001V10H12.001V14H17.6525C17.2581 15.1082 16.5477 16.0766 15.609 16.7855L15.6105 16.7845L18.7055 19.4035C18.4865 19.6025 22.001 17 22.001 12C22.001 11.3295 21.932 10.675 21.8065 10.0415Z" fill="#1976D2"/>
</svg>
