<svg width="20" height="20" viewBox="0 0 20 20" fill="none" xmlns="http://www.w3.org/2000/svg">
<path d="M10.0001 1.66675C5.39175 1.66675 1.66675 5.39175 1.66675 10.0001C1.66675 14.6084 5.39175 18.3334 10.0001 18.3334C14.6084 18.3334 18.3334 14.6084 18.3334 10.0001C18.3334 5.39175 14.6084 1.66675 10.0001 1.66675ZM13.5834 13.5834C13.5063 13.6607 13.4147 13.722 13.3139 13.7638C13.2131 13.8056 13.1051 13.8271 12.9959 13.8271C12.8868 13.8271 12.7787 13.8056 12.6779 13.7638C12.5771 13.722 12.4855 13.6607 12.4084 13.5834L10.0001 11.1751L7.59175 13.5834C7.43593 13.7392 7.2246 13.8268 7.00425 13.8268C6.78389 13.8268 6.57256 13.7392 6.41675 13.5834C6.26093 13.4276 6.1734 13.2163 6.1734 12.9959C6.1734 12.8868 6.19489 12.7788 6.23664 12.678C6.2784 12.5772 6.3396 12.4856 6.41675 12.4084L8.82508 10.0001L6.41675 7.59175C6.26093 7.43593 6.1734 7.2246 6.1734 7.00425C6.1734 6.78389 6.26093 6.57256 6.41675 6.41675C6.57256 6.26093 6.78389 6.1734 7.00425 6.1734C7.2246 6.1734 7.43593 6.26093 7.59175 6.41675L10.0001 8.82508L12.4084 6.41675C12.4856 6.3396 12.5772 6.2784 12.678 6.23664C12.7788 6.19489 12.8868 6.1734 12.9959 6.1734C13.105 6.1734 13.2131 6.19489 13.3139 6.23664C13.4147 6.2784 13.5063 6.3396 13.5834 6.41675C13.6606 6.4939 13.7218 6.58549 13.7635 6.6863C13.8053 6.7871 13.8268 6.89514 13.8268 7.00425C13.8268 7.11336 13.8053 7.2214 13.7635 7.3222C13.7218 7.423 13.6606 7.5146 13.5834 7.59175L11.1751 10.0001L13.5834 12.4084C13.9001 12.7251 13.9001 13.2584 13.5834 13.5834Z" fill="#E0E0E0"/>
<path d="M10.0001 1.66675C5.39175 1.66675 1.66675 5.39175 1.66675 10.0001C1.66675 14.6084 5.39175 18.3334 10.0001 18.3334C14.6084 18.3334 18.3334 14.6084 18.3334 10.0001C18.3334 5.39175 14.6084 1.66675 10.0001 1.66675ZM13.5834 13.5834C13.5063 13.6607 13.4147 13.722 13.3139 13.7638C13.2131 13.8056 13.1051 13.8271 12.9959 13.8271C12.8868 13.8271 12.7787 13.8056 12.6779 13.7638C12.5771 13.722 12.4855 13.6607 12.4084 13.5834L10.0001 11.1751L7.59175 13.5834C7.43593 13.7392 7.2246 13.8268 7.00425 13.8268C6.78389 13.8268 6.57256 13.7392 6.41675 13.5834C6.26093 13.4276 6.1734 13.2163 6.1734 12.9959C6.1734 12.8868 6.19489 12.7788 6.23664 12.678C6.2784 12.5772 6.3396 12.4856 6.41675 12.4084L8.82508 10.0001L6.41675 7.59175C6.26093 7.43593 6.1734 7.2246 6.1734 7.00425C6.1734 6.78389 6.26093 6.57256 6.41675 6.41675C6.57256 6.26093 6.78389 6.1734 7.00425 6.1734C7.2246 6.1734 7.43593 6.26093 7.59175 6.41675L10.0001 8.82508L12.4084 6.41675C12.4856 6.3396 12.5772 6.2784 12.678 6.23664C12.7788 6.19489 12.8868 6.1734 12.9959 6.1734C13.105 6.1734 13.2131 6.19489 13.3139 6.23664C13.4147 6.2784 13.5063 6.3396 13.5834 6.41675C13.6606 6.4939 13.7218 6.58549 13.7635 6.6863C13.8053 6.7871 13.8268 6.89514 13.8268 7.00425C13.8268 7.11336 13.8053 7.2214 13.7635 7.3222C13.7218 7.423 13.6606 7.5146 13.5834 7.59175L11.1751 10.0001L13.5834 12.4084C13.9001 12.7251 13.9001 13.2584 13.5834 13.5834Z" fill="#E0E0E0"/>
</svg>
