<svg width="150" height="150" viewBox="0 0 150 150" fill="none" xmlns="http://www.w3.org/2000/svg">
<path d="M75.188 12.2224C62.322 12.2224 51.3179 22.6652 51.8921 35.5183C52.9148 58.401 73.6908 69.1541 75.188 69.1541C76.6859 69.1536 97.4612 58.4006 98.4839 35.5183C99.0581 22.6652 88.054 12.2225 75.188 12.2224ZM75.0513 27.5671C79.3816 27.5671 82.8921 31.0776 82.8921 35.408C82.8919 39.7381 79.3815 43.2488 75.0513 43.2488C70.7213 43.2485 67.2107 39.738 67.2104 35.408C67.2104 31.0778 70.7211 27.5674 75.0513 27.5671Z" fill="#F00029"/>
<path d="M45.2832 69.5747C41.6274 68.6264 37.9847 68.797 34.623 70.1235C31.379 71.4038 28.949 73.5391 27.1797 75.6655C23.7944 79.7344 21.9052 84.9035 20.8057 88.5171C20.2207 90.4395 19.7769 92.2139 19.4521 93.5396C19.0428 95.2103 18.961 95.5238 18.9746 95.4858C18.3463 97.231 17.8728 99.8455 17.5156 102.007C17.1065 104.484 16.6831 107.482 16.2783 110.579C15.4672 116.785 14.7002 123.641 14.2402 128.068C13.738 132.902 17.2493 137.228 22.083 137.73C26.9165 138.232 31.2418 134.721 31.7441 129.887C32.1933 125.564 32.9431 118.869 33.7285 112.86C34.122 109.849 34.5171 107.072 34.8799 104.875C35.2791 102.459 35.5273 101.48 35.5322 101.447C35.9293 100.343 36.3214 98.6436 36.5459 97.7271C36.855 96.4655 37.2049 95.0784 37.6426 93.6401C38.5884 90.5317 39.6616 88.1791 40.708 86.9214C40.8079 86.8013 40.8933 86.7089 40.9629 86.6392C42.2001 87.0087 45.6461 88.862 51.4453 96.0024L55.4922 100.985L61.4717 98.6538C62.8586 98.1131 65.3886 97.2383 68.1377 96.5122C71.0263 95.7493 73.4812 95.3345 74.9805 95.3345C75.0088 95.3345 75.0371 95.3318 75.0654 95.3315C75.0936 95.3318 75.1222 95.3345 75.1504 95.3345C76.6497 95.3346 79.1047 95.7493 81.9932 96.5122C84.7423 97.2384 87.2724 98.1132 88.6592 98.6538L94.6387 100.985L98.6855 96.0024C104.485 88.8617 107.931 87.0085 109.168 86.6392C109.238 86.7089 109.323 86.8013 109.423 86.9214C110.469 88.1791 111.542 90.5317 112.488 93.6401C112.926 95.0785 113.276 96.4655 113.585 97.7271C113.81 98.6437 114.201 100.344 114.599 101.447C114.585 101.41 114.837 102.369 115.251 104.875C115.614 107.072 116.009 109.849 116.402 112.86C117.188 118.869 117.938 125.564 118.387 129.887C118.889 134.721 123.214 138.232 128.048 137.73C132.881 137.228 136.393 132.901 135.891 128.068C135.431 123.641 134.664 116.785 133.853 110.579C133.448 107.482 133.024 104.484 132.615 102.007C132.258 99.8455 131.785 97.2311 131.156 95.4858C131.17 95.5238 131.088 95.2103 130.679 93.5396C130.354 92.2139 129.91 90.4396 129.325 88.5171C128.226 84.9035 126.336 79.7344 122.951 75.6655C121.182 73.5391 118.752 71.4039 115.508 70.1235C112.146 68.797 108.503 68.6265 104.848 69.5747C99.4696 70.9698 94.285 74.7128 89.0947 80.2329C88.2549 79.9817 87.3801 79.7334 86.4873 79.4976C83.1916 78.6271 78.9691 77.7359 75.1504 77.7358C75.1222 77.7358 75.0936 77.7375 75.0654 77.7378C75.0371 77.7375 75.0088 77.7358 74.9805 77.7358C71.1618 77.7358 66.9393 78.6271 63.6436 79.4976C62.7507 79.7334 61.876 79.9817 61.0361 80.2329C55.8459 74.7127 50.6612 70.9699 45.2832 69.5747Z" fill="#F00029"/>
<rect x="63.4243" y="119.559" width="15.5914" height="14.9918" rx="7.49588" transform="rotate(90 63.4243 119.559)" fill="#F00029"/>
<rect x="102.103" y="119.559" width="15.5914" height="14.9918" rx="7.49588" transform="rotate(90 102.103 119.559)" fill="#F00029"/>
</svg>
